PathFileType	4	(X/Y/Z)	Walk3.trc
DataRate	CameraRate	NumFrames	NumMarkers	Units	OrigDataRate	OrigDataStartFrame	OrigNumFrames
200.000000	200.000000	4	58	mm	200.000000	418	499
Frame#	Times		LFHD		RFHD		RASI		RACR1		RUA1		RElbow		RFA1		RCAR		LACR1		LUA1		RTH3		RTH2		LLFC		LTB3		LTB2		LMT1		LMT5		LCAR		LTH3		RBHD		RWRU		RLFC		RTB2		LWRR		LASI		LTH2		C7		LElbow		RTH1		RTB4		RMT1		RBack		CLAV		LFA1		RTB3		RTB1		STRN		RToe		LTB1		RWRR		LTB4		LPSI		LTH4		LTH1		LElbowM		LWRU		RPSI		RMMAL		RLMAL		LToe		RTH4		LBHD		LCAL		RMT5		RCAL		T10		LLMAL		LMMAL
			X1	Y1	Z1	X2	Y2	Z2	X3	Y3	Z3	X4	Y4	Z4	X5	Y5	Z5	X6	Y6	Z6	X7	Y7	Z7	X8	Y8	Z8	X9	Y9	Z9	X10	Y10	Z10	X11	Y11	Z11	X12	Y12	Z12	X13	Y13	Z13	X14	Y14	Z14	X15	Y15	Z15	X16	Y16	Z16	X17	Y17	Z17	X18	Y18	Z18	X19	Y19	Z19	X20	Y20	Z20	X21	Y21	Z21	X22	Y22	Z22	X23	Y23	Z23	X24	Y24	Z24	X25	Y25	Z25	X26	Y26	Z26	X27	Y27	Z27	X28	Y28	Z28	X29	Y29	Z29	X30	Y30	Z30	X31	Y31	Z31	X32	Y32	Z32	X33	Y33	Z33	X34	Y34	Z34	X35	Y35	Z35	X36	Y36	Z36	X37	Y37	Z37	X38	Y38	Z38	X39	Y39	Z39	X40	Y40	Z40	X41	Y41	Z41	X42	Y42	Z42	X43	Y43	Z43	X44	Y44	Z44	X45	Y45	Z45	X46	Y46	Z46	X47	Y47	Z47	X48	Y48	Z48	X49	Y49	Z49	X50	Y50	Z50	X51	Y51	Z51	X52	Y52	Z52	X53	Y53	Z53	X54	Y54	Z54	X55	Y55	Z55	X56	Y56	Z56	X57	Y57	Z57	X58	Y58	Z58

418	2.09	762.26	1589.5	-73.955	752.4	1588.4	20.225	774.9	967.78	130.25	658	1369.8	117.01	645.66	1191.6	220.08	601.86	1068.6	248.57	637.84	924.86	268.99	758.46	802.57	297.62	660.15	1359.5	-195.65	643.69	1172.4	-280.32	651.7	559.8	162.71	721.81	636.38	156.31	824.58	480.99	-138.34	871.91	171.68	-67.875	858.6	259.07	-121.12	946.33	30.645	-26.803	919.95	25.282	-106.78	629.88	744.87	-320.42	786.78	592.53	-173.94	600.58	1532	21.307	685.6	825.45	279.54	626.18	474.5	144.76	482.5	279.88	130.43	630.48	794.43	-279.23	802.52	956.79	-153.57	814.32	694.11	-187.45	580.38	1401	-36.031	597.34	1048.6	-297.42	687.39	723.01	200.49	498.96	260.73	72.581	369.1	46.437	37.186	532.73	1307.9	74.761	723.5	1331.9	-37.078	580.7	916.06	-316.08	433.08	206.03	73.277	566.01	316.41	78.036	790.58	1230.7	-30.829	412.95	23.948	72.826	883.09	343.46	-60.778	743.98	848.76	242.98	877.05	256.96	-62.779	542.97	945.39	-67.925	760.78	671.36	-197.02	736.6	746.44	-229.79	570.23	1026.4	-221.7	581.39	801.09	-332.23	539.02	948.27	21.651	341.89	150.72	15.582	321.53	157.24	95.404	1016.6	25.579	-49.182	667.74	641.01	178.46	619.75	1526.5	-118.12	769.75	30.143	-67.082	340.82	58.352	102.92	260.3	182.07	53.528	522.98	1131.6	-30.24	837.02	58.82	-97.426	843.5	63.881	-13.331
419	2.095	767.63	1590.5	-74.95	757.68	1589.5	19.221	780.19	968.79	129.47	663.27	1370.9	116.11	650.96	1192.6	219.06	606.64	1069.6	247.42	641.4	925.66	267.73	760.84	802.11	296.28	666.05	1360.5	-196.4	650.43	1173.4	-281.2	661.66	559.43	162.88	730.57	637.09	155.9	826.97	481.05	-138.97	872.51	171.44	-68.11	859.62	258.82	-121.47	946.24	30.731	-26.795	919.92	25.318	-106.82	640.08	745.88	-320.69	790.26	593.09	-174.68	605.91	1533	20.241	688.21	825.88	278.39	637.11	473.95	145.29	491.54	281.19	130.93	639.93	795.52	-279.59	808.28	958.2	-154.29	818.98	694.37	-187.98	585.81	1401.9	-37.074	604.68	1049.4	-298.51	694.71	723.46	199.56	508.18	261.61	73.352	372.88	47.992	37.142	538.1	1309	73.808	728.94	1332.9	-37.762	589.27	916.57	-317.01	441.4	207.94	73.706	576.14	316.28	79.177	796.13	1232	-31.518	414.75	24.302	72.882	884.68	343.17	-61.249	746.72	848.6	241.82	878.12	256.7	-63.138	548.61	946.48	-68.676	765.2	672.22	-197.77	742.03	747.59	-230.63	577.18	1027.2	-222.92	591.07	801.6	-332.92	544.48	949.07	20.913	349.92	153.73	15.549	328.83	160.9	95.14	1016.6	25.559	-49.15	676.41	641	178.08	625.24	1527.3	-119.13	769.68	30.113	-67.235	344.92	60.899	102.28	268.84	187.47	52.451	528.62	1132.4	-31.181	837.04	58.807	-97.541	843.47	63.953	-13.411
420	2.1	772.99	1591.5	-75.922	762.95	1590.7	18.242	785.39	969.77	128.77	668.5	1372	115.25	656.23	1193.6	218.08	611.4	1070.7	246.32	644.94	926.47	266.52	763.2	801.64	294.93	671.92	1361.5	-197.11	657.17	1174.5	-282.06	671.58	559.18	163.05	739.31	637.9	155.56	829.23	481.1	-139.61	873.05	171.22	-68.319	860.6	258.58	-121.82	946.15	30.826	-26.802	919.9	25.344	-106.85	650.4	746.96	-320.95	793.66	593.64	-175.43	611.24	1534	19.202	690.81	826.33	277.29	648.01	473.52	145.82	500.8	282.54	131.43	649.49	796.67	-279.94	813.98	959.57	-154.98	823.53	694.6	-188.49	591.22	1402.8	-38.076	612.02	1050.2	-299.61	702	724	198.65	517.63	262.54	74.135	377.24	49.707	37.133	543.45	1310.1	72.869	734.35	1334	-38.413	597.88	917.11	-317.94	450	209.86	74.16	586.44	316.23	80.327	801.66	1233.2	-32.177	417.24	24.784	72.973	886.11	342.89	-61.679	749.4	848.45	240.65	879.08	256.44	-63.465	554.21	947.58	-69.479	769.53	673.07	-198.52	747.39	748.73	-231.44	584.11	1027.9	-224.16	600.83	802.14	-333.58	549.9	949.89	20.123	358.27	156.68	15.533	336.48	164.47	94.909	1016.6	25.577	-49.134	685.03	641.09	177.7	630.72	1528	-120.12	769.6	30.081	-67.394	349.58	63.539	101.72	277.69	192.66	51.455	534.23	1133.3	-32.107	837.04	58.791	-97.663	843.42	64.028	-13.508
421	2.105	778.35	1592.5	-76.868	768.21	1591.9	17.287	790.5	970.73	128.15	673.69	1373.2	114.44	661.49	1194.7	217.13	616.15	1071.7	245.25	648.48	927.28	265.35	765.54	801.18	293.57	677.78	1362.5	-197.79	663.92	1175.6	-282.89	681.44	559.06	163.23	748.02	638.8	155.31	831.38	481.15	-140.27	873.53	171	-68.502	861.55	258.34	-122.15	946.05	30.926	-26.82	919.88	25.36	-106.9	660.83	748.11	-321.22	796.97	594.18	-176.17	616.55	1535	18.19	693.42	826.79	276.22	658.86	473.21	146.33	510.27	283.94	131.92	659.15	797.87	-280.31	819.61	960.89	-155.63	827.98	694.83	-188.97	596.61	1403.7	-39.033	619.38	1051.1	-300.71	709.25	724.62	197.76	527.3	263.51	74.918	382.25	51.569	37.162	548.76	1311.1	71.942	739.74	1335.1	-39.033	606.54	917.68	-318.88	458.88	211.79	74.629	596.9	316.28	81.466	807.16	1234.5	-32.806	420.51	25.411	73.104	887.4	342.62	-62.068	752.04	848.29	239.48	879.93	256.2	-63.757	559.78	948.71	-70.33	773.78	673.91	-199.28	752.66	749.85	-232.23	591.04	1028.7	-225.42	610.68	802.71	-334.23	555.25	950.72	19.285	366.93	159.55	15.529	344.49	167.95	94.712	1016.5	25.621	-49.131	693.59	641.27	177.34	636.2	1528.8	-121.08	769.52	30.049	-67.557	354.85	66.259	101.27	286.82	197.59	50.554	539.8	1134.2	-33.014	837.04	58.773	-97.792	843.36	64.107	-13.62
